<?xml version="1.0" encoding="utf-8"?>
<!-- Generator: Adobe Illustrator 20.1.0, SVG Export Plug-In . SVG Version: 6.00 Build 0)  -->
<svg version="1.1" id="Capa_1" xmlns="http://www.w3.org/2000/svg" xmlns:xlink="http://www.w3.org/1999/xlink" x="0px" y="0px"
	 viewBox="0 0 163.9 163.9" style="enable-background:new 0 0 163.9 163.9;" xml:space="preserve">
<style type="text/css">
	.st0{fill:#F7B92F;}
	.st1{fill:#89082D;}
</style>
<circle class="st0" cx="82.6" cy="82" r="81.4"/>
<g>
	<path class="st1" d="M65.2,111.4c0,6.5-6.6,11.8-14.8,11.8s-14.8-5.3-14.8-11.8s6.6-11.8,14.8-11.8S65.2,104.9,65.2,111.4z
		 M118.4,99.5c0,6.5-6.6,11.8-14.8,11.8S88.8,106,88.8,99.5s6.6-11.8,14.8-11.8S118.4,93,118.4,99.5z"/>
	<path class="st1" d="M112.5,99.5V46.3h5.9v53.3L112.5,99.5L112.5,99.5z M65.2,52.2v59.2h-5.9V52.2H65.2z"/>
	<path class="st1" d="M59.2,51.6c0-3,2.3-5.6,5.3-5.9l47.4-4.7c3.3-0.3,6.2,2,6.5,5.3c0,0.2,0,0.4,0,0.6v5.3l-59.2,5.9V51.6z"/>
</g>
</svg>
